<?xml version="1.0" encoding="UTF-8"?>
<svg width="764px" height="179px" viewBox="0 0 764 179" version="1.1" xmlns="http://www.w3.org/2000/svg" xmlns:xlink="http://www.w3.org/1999/xlink">
    <title>&lt;odelang Transparent</title>
    <defs>
        <linearGradient x1="98.8944514%" y1="51.2562751%" x2="29.9295691%" y2="50.2638432%" id="linearGradient-1">
            <stop stop-color="#C554BC" offset="0%"></stop>
            <stop stop-color="#37A7BB" offset="100%"></stop>
            <stop stop-color="#37A7BB" offset="100%"></stop>
        </linearGradient>
    </defs>
    <g id="Page-1" stroke="none" stroke-width="1" fill="none" fill-rule="evenodd">
        <path d="M116.964,178.692 L116.964,132.316521 L44.2920632,90.0329962 L44.2920632,89.3510038 L116.964,47.0674789 L116.964,0.692 L0.964,68.2092414 L0.964,111.174759 L116.964,178.692 Z M163.954,135.088 C170.45,135.088 176.569,134.044 182.311,131.956 C188.053,129.868 193.041,126.881 197.275,122.995 C201.509,119.109 204.844,114.44 207.28,108.988 C209.716,103.536 210.934,97.446 210.934,90.718 C210.934,83.99 209.716,77.9 207.28,72.448 C204.844,66.996 201.509,62.327 197.275,58.441 C193.041,54.555 188.053,51.568 182.311,49.48 C176.569,47.392 170.45,46.348 163.954,46.348 C157.458,46.348 151.339,47.392 145.597,49.48 C139.855,51.568 134.867,54.555 130.633,58.441 C126.399,62.327 123.064,66.996 120.628,72.448 C118.192,77.9 116.974,83.99 116.974,90.718 C116.974,97.446 118.192,103.536 120.628,108.988 C123.064,114.44 126.399,119.109 130.633,122.995 C134.867,126.881 139.855,129.868 145.597,131.956 C151.339,134.044 157.458,135.088 163.954,135.088 Z M163.954,112.12 C157.342,112.12 152.209,110.148 148.555,106.204 C144.901,102.26 143.074,97.098 143.074,90.718 C143.074,84.338 144.901,79.176 148.555,75.232 C152.209,71.288 157.342,69.316 163.954,69.316 C170.566,69.316 175.699,71.288 179.353,75.232 C183.007,79.176 184.834,84.338 184.834,90.718 C184.834,97.098 183.007,102.26 179.353,106.204 C175.699,110.148 170.566,112.12 163.954,112.12 Z M264.7,135.088 C267.6,135.088 270.413,134.682 273.139,133.87 C275.865,133.058 278.359,132.014 280.621,130.738 C282.883,129.462 284.855,128.041 286.537,126.475 C288.219,124.909 289.582,123.372 290.626,121.864 L290.626,121.864 L290.974,121.864 L290.974,133 L314.986,133 L314.986,1.456 L288.886,1.456 L288.886,57.484 L288.538,57.484 C285.522,53.424 281.665,50.553 276.967,48.871 C272.269,47.189 267.194,46.348 261.742,46.348 C255.71,46.348 250.316,47.595 245.56,50.089 C240.804,52.583 236.773,55.918 233.467,60.094 C230.161,64.27 227.609,69.055 225.811,74.449 C224.013,79.843 223.114,85.498 223.114,91.414 C223.114,97.794 224.1,103.652 226.072,108.988 C228.044,114.324 230.857,118.935 234.511,122.821 C238.165,126.707 242.544,129.723 247.648,131.869 C252.752,134.015 258.436,135.088 264.7,135.088 Z M270.094,112.12 C263.482,112.12 258.349,110.148 254.695,106.204 C251.041,102.26 249.214,97.098 249.214,90.718 C249.214,84.338 251.041,79.176 254.695,75.232 C258.349,71.288 263.482,69.316 270.094,69.316 C276.706,69.316 281.839,71.288 285.493,75.232 C289.147,79.176 290.974,84.338 290.974,90.718 C290.974,97.098 289.147,102.26 285.493,106.204 C281.839,110.148 276.706,112.12 270.094,112.12 Z M380.236,135.088 C387.08,135.088 393.692,133.638 400.072,130.738 C406.452,127.838 411.73,123.72 415.906,118.384 L415.906,118.384 L397.636,104.986 C395.432,108.002 392.851,110.467 389.893,112.381 C386.935,114.295 383.31,115.252 379.018,115.252 C373.914,115.252 369.622,113.773 366.142,110.815 C362.662,107.857 360.4,103.884 359.356,98.896 L359.356,98.896 L419.908,98.896 L419.908,90.718 C419.908,83.99 418.98,77.9 417.124,72.448 C415.268,66.996 412.629,62.327 409.207,58.441 C405.785,54.555 401.609,51.568 396.679,49.48 C391.749,47.392 386.268,46.348 380.236,46.348 C373.74,46.348 367.621,47.392 361.879,49.48 C356.137,51.568 351.149,54.555 346.915,58.441 C342.681,62.327 339.346,66.996 336.91,72.448 C334.474,77.9 333.256,83.99 333.256,90.718 C333.256,97.446 334.474,103.536 336.91,108.988 C339.346,114.44 342.681,119.109 346.915,122.995 C351.149,126.881 356.137,129.868 361.879,131.956 C367.621,134.044 373.74,135.088 380.236,135.088 Z M393.808,81.148 L359.356,81.148 C359.472,79.06 359.965,77.059 360.835,75.145 C361.705,73.231 362.923,71.549 364.489,70.099 C366.055,68.649 367.94,67.46 370.144,66.532 C372.348,65.604 374.9,65.14 377.8,65.14 C382.556,65.14 386.442,66.706 389.458,69.838 C392.474,72.97 393.924,76.74 393.808,81.148 L393.808,81.148 Z M462.19,133 L462.19,1.456 L436.09,1.456 L436.09,133 L462.19,133 Z M506.908,135.088 C512.244,135.088 517.319,134.102 522.133,132.13 C526.947,130.158 530.804,126.91 533.704,122.386 L533.704,122.386 L534.052,122.386 L534.052,133 L558.064,133 L558.064,90.022 C558.064,82.946 557.484,76.711 556.324,71.317 C555.164,65.923 553.105,61.37 550.147,57.658 C547.189,53.946 543.245,51.133 538.315,49.219 C533.385,47.305 527.092,46.348 519.436,46.348 C512.476,46.348 505.748,47.479 499.252,49.741 C492.756,52.003 487.072,55.396 482.2,59.92 L482.2,59.92 L496.12,74.188 C498.904,71.056 502.065,68.591 505.603,66.793 C509.141,64.995 513.056,64.096 517.348,64.096 C521.872,64.096 525.787,65.459 529.093,68.185 C532.399,70.911 534.052,74.594 534.052,79.234 C530.456,79.234 526.541,79.292 522.307,79.408 C518.073,79.524 513.839,79.872 509.605,80.452 C505.371,81.032 501.282,81.931 497.338,83.149 C493.394,84.367 489.885,86.078 486.811,88.282 C483.737,90.486 481.301,93.27 479.503,96.634 C477.705,99.998 476.806,104.116 476.806,108.988 C476.806,113.28 477.618,117.05 479.242,120.298 C480.866,123.546 483.07,126.272 485.854,128.476 C488.638,130.68 491.857,132.333 495.511,133.435 C499.165,134.537 502.964,135.088 506.908,135.088 Z M514.216,117.34 C511.316,117.34 508.532,116.586 505.864,115.078 C503.196,113.57 501.862,111.25 501.862,108.118 C501.862,105.218 502.819,102.956 504.733,101.332 C506.647,99.708 508.967,98.49 511.693,97.678 C514.419,96.866 517.261,96.373 520.219,96.199 C523.177,96.025 525.642,95.938 527.614,95.938 L527.614,95.938 L534.052,95.938 L534.052,101.506 C534.052,104.174 533.501,106.494 532.399,108.466 C531.297,110.438 529.818,112.062 527.962,113.338 C526.106,114.614 523.989,115.6 521.611,116.296 C519.233,116.992 516.768,117.34 514.216,117.34 Z M600.52,133 L600.52,90.892 C600.52,88.108 600.694,85.44 601.042,82.888 C601.39,80.336 602.115,78.045 603.217,76.015 C604.319,73.985 605.914,72.361 608.002,71.143 C610.09,69.925 612.816,69.316 616.18,69.316 C619.544,69.316 622.125,70.012 623.923,71.404 C625.721,72.796 627.055,74.594 627.925,76.798 C628.795,79.002 629.317,81.409 629.491,84.019 C629.665,86.629 629.752,89.152 629.752,91.588 L629.752,91.588 L629.752,133 L655.852,133 L655.852,86.368 C655.852,80.684 655.446,75.406 654.634,70.534 C653.822,65.662 652.285,61.428 650.023,57.832 C647.761,54.236 644.6,51.423 640.54,49.393 C636.48,47.363 631.144,46.348 624.532,46.348 C621.4,46.348 618.5,46.754 615.832,47.566 C613.164,48.378 610.786,49.422 608.698,50.698 C606.61,51.974 604.812,53.424 603.304,55.048 C601.796,56.672 600.636,58.296 599.824,59.92 L599.824,59.92 L599.476,59.92 L599.476,48.436 L574.42,48.436 L574.42,133 L600.52,133 Z M714.142,174.76 C730.614,174.76 742.881,170.613 750.943,162.319 C759.005,154.025 763.036,141.874 763.036,125.866 L763.036,48.436 L739.024,48.436 L739.024,59.572 L738.676,59.572 C737.632,58.064 736.24,56.527 734.5,54.961 C732.76,53.395 730.672,51.974 728.236,50.698 C725.8,49.422 723.045,48.378 719.971,47.566 C716.897,46.754 713.504,46.348 709.792,46.348 C703.76,46.348 698.366,47.595 693.61,50.089 C688.854,52.583 684.823,55.86 681.517,59.92 C678.211,63.98 675.659,68.678 673.861,74.014 C672.063,79.35 671.164,84.802 671.164,90.37 C671.164,96.75 672.15,102.608 674.122,107.944 C676.094,113.28 678.907,117.891 682.561,121.777 C686.215,125.663 690.594,128.679 695.698,130.825 C700.802,132.971 706.486,134.044 712.75,134.044 C716.694,134.044 720.899,133.203 725.365,131.521 C729.831,129.839 733.572,126.968 736.588,122.908 L736.936,122.908 L736.936,131.086 C736.936,137.118 735.051,142.077 731.281,145.963 C727.511,149.849 721.624,151.792 713.62,151.792 C708.284,151.792 703.383,150.806 698.917,148.834 C694.451,146.862 690.188,144.194 686.128,140.83 L671.686,162.406 C677.834,167.278 684.562,170.555 691.87,172.237 C699.178,173.919 706.602,174.76 714.142,174.76 Z M718.144,111.076 C715.128,111.076 712.373,110.496 709.879,109.336 C707.385,108.176 705.181,106.639 703.267,104.725 C701.353,102.811 699.874,100.607 698.83,98.113 C697.786,95.619 697.264,92.98 697.264,90.196 C697.264,87.412 697.786,84.773 698.83,82.279 C699.874,79.785 701.353,77.581 703.267,75.667 C705.181,73.753 707.385,72.216 709.879,71.056 C712.373,69.896 715.128,69.316 718.144,69.316 C721.044,69.316 723.77,69.896 726.322,71.056 C728.874,72.216 731.107,73.753 733.021,75.667 C734.935,77.581 736.414,79.785 737.458,82.279 C738.502,84.773 739.024,87.412 739.024,90.196 C739.024,92.98 738.502,95.619 737.458,98.113 C736.414,100.607 734.935,102.811 733.021,104.725 C731.107,106.639 728.874,108.176 726.322,109.336 C723.77,110.496 721.044,111.076 718.144,111.076 Z" id="&lt;odelang-Transparent" fill="url(#linearGradient-1)" fill-rule="nonzero"></path>
    </g>
</svg>